HIERARCHY
ROOT hip
{
	OFFSET 0.000000 0.000000 0.000000 
	CHANNELS 6 Xposition Yposition Zposition Xrotation Zrotation Yrotation
	JOINT abdomen
	{
		OFFSET 0.000000 3.402643 0.000000 
		CHANNELS 3 Xrotation Zrotation Yrotation
		JOINT chest
		{
			OFFSET 0.000000 8.438565 -0.680529 
			CHANNELS 3 Xrotation Zrotation Yrotation
			JOINT neck
			{
				OFFSET 0.000000 10.207942 -0.272212 
				CHANNELS 3 Xrotation Zrotation Yrotation
				JOINT head
				{
					OFFSET 0.000000 3.130431 0.000000 
					CHANNELS 3 Xrotation Zrotation Yrotation
					End Site
					{
						OFFSET 0.000000 3.130435 0.000000 
					}
				}
			}
			JOINT lCollar
			{
				OFFSET 3.470700 6.669187 -0.816635 
				CHANNELS 3 Yrotation Zrotation Xrotation
				JOINT lShldr
				{
					OFFSET 3.198488 0.000000 0.000000 
					CHANNELS 3 Zrotation Yrotation Xrotation
					JOINT lForeArm
					{
						OFFSET 10.139888 0.000000 0.000000 
						CHANNELS 3 Yrotation Zrotation Xrotation
						JOINT lHand
						{
							OFFSET 8.370511 0.000000 0.000000 
							CHANNELS 3 Zrotation Yrotation Xrotation
							End Site
							{
								OFFSET 4.083176 0.000000 0.000000 
							}
						}
					}
				}
			}
			JOINT rCollar
			{
				OFFSET -3.470700 6.669187 -0.816635 
				CHANNELS 3 Yrotation Zrotation Xrotation
				JOINT rShldr
				{
					OFFSET -3.198488 0.000000 0.000000 
					CHANNELS 3 Zrotation Yrotation Xrotation
					JOINT rForeArm
					{
						OFFSET -10.139888 0.000000 0.000000 
						CHANNELS 3 Yrotation Zrotation Xrotation
						JOINT rHand
						{
							OFFSET -8.370511 0.000000 0.000000 
							CHANNELS 3 Zrotation Yrotation Xrotation
							End Site
							{
								OFFSET -4.083176 0.000000 0.000000 
							}
						}
					}
				}
			}
		}
	}
	JOINT lThigh
	{
		OFFSET 5.308129 -1.633274 1.361059 
		CHANNELS 3 Xrotation Zrotation Yrotation
		JOINT lShin
		{
			OFFSET -2.041588 -20.007561 0.000000 
			CHANNELS 3 Xrotation Zrotation Yrotation
			JOINT lFoot
			{
				OFFSET 0.000000 -19.190928 -1.224953 
				CHANNELS 3 Xrotation Yrotation Zrotation
				End Site
				{
					OFFSET 0.000000 -2.449906 4.627600 
				}
			}
		}
	}
	JOINT rThigh
	{
		OFFSET -5.308129 -1.633274 1.361059 
		CHANNELS 3 Xrotation Zrotation Yrotation
		JOINT rShin
		{
			OFFSET 2.041588 -20.007561 0.000000 
			CHANNELS 3 Xrotation Zrotation Yrotation
			JOINT rFoot
			{
				OFFSET 0.000000 -19.190928 -1.224953 
				CHANNELS 3 Xrotation Yrotation Zrotation
				End Site
				{
					OFFSET 0.000000 -2.449906 4.627600 
				}
			}
		}
	}
}
MOTION
Frames: 6
Frame Time: 0.016667
-4.643972 42.428631 -0.356223 -0.928688 -2.597320 0.286186 -19.482000 2.128820 2.675540 9.638670 -0.047944 1.532690 1.081740 18.000099 -11.026800 8.866240 12.700100 -4.166620 2.000000 -2.000000 0.000000 -78.194504 5.292540 158.875000 87.227097 -0.221463 0.136602 -179.914001 -179.893005 1.242390 -2.000000 2.000000 0.000000 66.442902 1.072110 155.598007 -103.223000 0.185809 0.113829 179.906006 179.897003 7.717030 -18.692806 4.473908 -2.596113 51.816521 1.913962 3.480746 -15.542292 -2.258700 -0.160112 -20.515877 -2.339264 -1.035696 52.342598 -1.799744 -3.557988 -11.886307 3.683066 0.146874 
-4.129317 42.443417 -0.337181 -0.908626 -1.747830 -3.429330 -19.523701 2.012710 3.814010 9.617620 -0.949233 2.165850 1.098330 17.724300 -10.721900 8.913800 12.582300 -3.980060 2.000000 -2.000000 0.000000 -80.411903 9.460930 158.182007 88.272003 -0.218972 0.136700 -179.914001 -179.882004 0.871317 -2.000000 2.000000 0.000000 63.394901 4.297920 154.139999 -102.305000 0.187793 0.114279 179.914001 179.904007 6.340060 -17.503929 1.938576 -5.216624 51.158451 1.941941 3.433281 -16.142796 0.399892 0.540341 -21.805182 -4.176682 -3.315043 53.630524 -1.690316 -3.633398 -10.660524 1.198214 -0.365891 
-3.707947 42.318024 -0.271131 -0.879064 -1.083860 -6.750950 -19.539600 1.951670 4.934440 9.721860 -1.678540 2.782000 1.014210 17.567900 -10.600700 8.961330 12.464600 -3.862050 2.000000 -2.000000 0.000000 -82.834503 12.896400 157.266998 89.619698 -0.215757 0.136759 -179.914001 -179.893005 1.242390 -2.000000 2.000000 0.000000 60.171001 7.504720 152.419006 -99.805099 0.193229 0.115340 179.912003 179.901993 5.607640 -16.907076 0.107652 -7.989358 50.971134 1.965256 3.419723 -16.755360 0.890409 0.706687 -22.826723 -5.474123 -5.318926 54.387547 -1.615856 -3.671287 -11.236136 -0.569103 -0.596959 
-3.286601 42.192642 -0.205084 -0.898462 -0.419870 -10.081300 -19.548500 1.890170 6.055280 9.814540 -2.417860 3.397600 0.929496 17.402201 -10.466600 8.998840 12.347000 -3.746340 2.000000 -2.000000 0.000000 -85.345200 16.282700 156.184998 90.977097 -0.212351 0.156271 -179.914993 -179.893997 1.613480 -2.000000 2.000000 0.000000 56.830002 10.614200 150.501999 -97.295303 0.198728 0.116167 179.901001 179.891006 4.875230 -16.152431 -1.648357 -10.759439 50.743893 1.990482 3.388770 -17.428015 1.349883 0.851890 -23.873901 -6.801555 -7.313727 55.184265 -1.538514 -3.724263 -11.743636 -2.294240 -0.814076 
-2.960708 41.951904 -0.119096 -0.966799 0.107407 -12.912000 -19.632099 1.881600 7.096430 9.858370 -2.984420 3.961730 0.560891 17.277500 -10.594000 8.897080 12.261400 -3.764740 2.000000 -2.000000 0.000000 -87.806801 18.994900 154.968002 92.412697 -0.208683 0.156162 -179.916000 -179.893997 1.925980 -2.000000 2.000000 0.000000 53.567299 13.410900 148.720993 -93.555099 0.206977 0.116950 179.910995 179.899994 4.513880 -15.558069 -2.503929 -11.864212 50.576248 2.021379 3.387500 -18.800947 0.392169 0.517730 -24.609884 -7.732023 -7.994173 55.675629 -1.502114 -3.758273 -13.129312 -2.629583 -0.846094 
-2.634837 41.711029 -0.033113 -1.064520 0.634656 -15.754000 -19.709000 1.885300 8.145000 9.891390 -3.551020 4.525630 0.202971 17.142200 -10.716300 8.795200 12.166100 -3.785710 2.000000 -2.000000 0.000000 -90.375999 21.658001 153.615005 93.848198 -0.205018 0.155961 -179.916000 -179.895004 2.248250 -2.000000 2.000000 0.000000 50.167801 16.110100 146.764008 -89.815002 0.215291 0.136724 179.910004 179.899002 4.162320 -14.946949 -3.331240 -12.932427 50.408035 2.057408 3.378539 -20.200140 -0.584180 0.166067 -25.381741 -8.658604 -8.681930 56.185146 -1.476676 -3.767357 -14.441768 -2.993588 -0.867018 
